:FULLY-SPECIFIED
:DEGREES
2497
root 3.22511 16.4244 -1.96091 34.6194 -92.7898 -17.4572
lowerback -7.81089 1.01531 0.556109
upperback -5.03666 1.15417 -0.883282
thorax -0.793983 0.482625 -1.13979
lowerneck -15.0181 -1.63723 1.89093
upperneck 20.1939 -3.33841 1.73112
head 8.79915 -1.31815 -0.137638
rclavicle -1.38109e-014 9.56651e-015
rhumerus -32.1509 0.0692364 -84.1575
rradius 41.0864
rwrist 9.82044
rhand -27.0432 -5.20173
rfingers 7.12502
rthumb -0.461772 -35.181
lclavicle -1.38109e-014 9.56651e-015
lhumerus -43.8301 -1.78077 83.4789
lradius 31.1918
lwrist -10.3685
lhand -34.493 -2.94929
lfingers 7.12502
lthumb -7.65541 26.8922
rfemur -16.0898 -1.9056 24.0583
rtibia 39.5614
rfoot -12.4448 -3.22831
rtoes -29.686
lfemur -36.8734 -13.7778 -22.3454
ltibia 20.0079
lfoot -2.67859 20.7192
ltoes -5.78479
2498
root 3.22135 16.4196 -1.9449 34.2738 -92.758 -17.1866
lowerback -7.67325 0.946464 0.633982
upperback -5.01912 1.0603 -0.897928
thorax -0.85223 0.434275 -1.2069
lowerneck -15.1187 -1.59913 1.91003
upperneck 20.1876 -3.24675 1.54629
head 8.81104 -1.29116 -0.193187
rclavicle 3.72721e-015 -5.49143e-015
rhumerus -32.5708 -0.535469 -84.0823
rradius 40.8138
rwrist 9.94607
rhand -27.0073 -5.11993
rfingers 7.12502
rthumb -0.427172 -35.0992
lclavicle 3.72721e-015 -5.49143e-015
lhumerus -43.3416 -1.63441 83.3182
lradius 30.8733
lwrist -10.8794
lhand -34.4309 -3.12187
lfingers 7.12502
lthumb -7.59549 26.7217
rfemur -17.616 -2.73292 23.7113
rtibia 42.7692
rfoot -10.3995 -2.10632
rtoes -29.0496
lfemur -36.5629 -12.9056 -23.0237
ltibia 20.7027
lfoot -2.96066 19.4708
ltoes -5.752
2499
root 3.21408 16.4225 -1.93323 36.8896 -92.6245 -20.1722
lowerback -7.28253 0.778408 0.508877
upperback -4.89906 0.854822 -0.859678
thorax -0.950937 0.338829 -1.11477
lowerneck -15.178 -1.54751 1.88059
upperneck 20.1075 -3.1204 1.36767
head 8.79115 -1.25191 -0.233414
rclavicle -9.74045e-015 6.73383e-015
rhumerus -32.9927 -0.871398 -84.0075
rradius 40.635
rwrist 9.85878
rhand -26.7353 -5.33776
rfingers 7.12502
rthumb -0.164429 -35.3174
lclavicle -9.74045e-015 6.73383e-015
lhumerus -42.8156 -1.40156 83.1866
lradius 30.5686
lwrist -11.4918
lhand -34.443 -3.18237
lfingers 7.12502
lthumb -7.60714 26.6608
rfemur -18.8019 -3.58225 23.2778
rtibia 45.9467
rfoot -7.89675 -1.19761
rtoes -27.5285
lfemur -35.8755 -12.2988 -23.7287
ltibia 21.305
lfoot -3.301 18.784
ltoes -5.06092
2500
root 3.21196 16.4214 -1.91745 38.2882 -92.7543 -21.7935
lowerback -7.00363 0.695885 0.387749
upperback -4.81232 0.75843 -0.881771
thorax -1.01866 0.295688 -1.07781
lowerneck -15.3625 -1.47489 1.89654
upperneck 20.0919 -2.97843 1.17464
head 8.81573 -1.20132 -0.285873
rclavicle 7.95139e-016 9.19379e-015
rhumerus -33.4188 -1.16103 -83.9678
rradius 40.4623
rwrist 9.88867
rhand -26.5811 -5.36689
rfingers 7.12502
rthumb -0.0154923 -35.3466
lclavicle 7.95139e-016 9.19379e-015
lhumerus -42.3152 -1.23839 83.0451
lradius 30.5109
lwrist -11.8389
lhand -34.1924 -3.20129
lfingers 7.12502
lthumb -7.36529 26.6505
rfemur -20.3028 -4.08921 22.7363
rtibia 49.1448
rfoot -5.30739 -0.375886
rtoes -26.2547
lfemur -35.3024 -11.8989 -24.2944
ltibia 21.7483
lfoot -3.51427 18.319
ltoes -3.5137
2501
root 3.21053 16.4208 -1.90104 41.6466 -92.9274 -25.4661
lowerback -6.63299 0.566125 0.100763
upperback -4.71878 0.607508 -0.877443
thorax -1.13313 0.229673 -0.923763
lowerneck -15.269 -1.37755 1.90122
upperneck 19.8828 -2.77531 0.9363
head 8.72323 -1.13233 -0.340179
rclavicle 1.39149e-014 -1.74434e-014
rhumerus -33.8063 -1.25811 -83.8829
rradius 40.253
rwrist 10.0387
rhand -26.3955 -5.43498
rfingers 7.12502
rthumb 0.16378 -35.4147
lclavicle 1.39149e-014 -1.74434e-014
lhumerus -41.9674 -1.33764 83.1823
lradius 30.6651
lwrist -11.8397
lhand -34.2383 -3.10263
lfingers 7.12502
lthumb -7.40962 26.7476
rfemur -21.7329 -4.50853 22.0918
rtibia 52.3036
rfoot -3.41942 0.203632
rtoes -25.4032
lfemur -34.5146 -11.6094 -24.9734
ltibia 21.9833
lfoot -3.80578 17.8784
ltoes -3.06251
2502
root 3.20902 16.4191 -1.88421 43.3723 -93.1895 -27.4675
lowerback -6.34474 0.49196 -0.124676
upperback -4.62767 0.524714 -0.905355
thorax -1.20178 0.19557 -0.832095
lowerneck -15.2485 -1.28488 1.91489
upperneck 19.7623 -2.58951 0.704652
head 8.67503 -1.06851 -0.39726
rclavicle -6.16232e-015 -1.39584e-014
rhumerus -34.1753 -1.54395 -83.7501
rradius 39.9751
rwrist 10.3831
rhand -25.923 -5.04146
rfingers 7.12502
rthumb 0.620099 -35.0203
lclavicle -6.16232e-015 -1.39584e-014
lhumerus -41.6054 -1.53278 83.3019
lradius 30.924
lwrist -11.5708
lhand -34.1809 -3.22216
lfingers 7.12502
lthumb -7.35419 26.63
rfemur -23.2124 -4.71292 21.4655
rtibia 55.3863
rfoot -2.14723 0.582319
rtoes -25.0614
lfemur -33.7363 -11.4483 -25.5463
ltibia 22.1383
lfoot -4.04701 17.7389
ltoes -3.19824
2503
root 3.21161 16.4101 -1.86531 47.3734 -93.6999 -31.6342
lowerback -6.18712 0.405585 -0.599917
upperback -4.54661 0.433572 -1.00655
thorax -1.2099 0.160713 -0.674879
lowerneck -15.2162 -1.17165 1.96339
upperneck 19.6271 -2.37612 0.437578
head 8.61963 -0.992807 -0.468596
rclavicle 8.34896e-015 -3.3576e-015
rhumerus -34.4606 -1.36551 -83.76
rradius 39.7365
rwrist 10.419
rhand -25.7287 -5.16825
rfingers 7.12502
rthumb 0.807757 -35.1465
lclavicle 8.34896e-015 -3.3576e-015
lhumerus -41.2023 -1.96434 83.5623
lradius 31.2977
lwrist -10.8985
lhand -34.2261 -3.0427
lfingers 7.12502
lthumb -7.39786 26.808
rfemur -24.8456 -4.79992 20.5523
rtibia 58.3762
rfoot -1.47599 0.552042
rtoes -25.8462
lfemur -33.065 -11.2433 -26.4087
ltibia 22.2933
lfoot -4.54264 17.7131
ltoes -2.92157
2504
root 3.21353 16.4005 -1.84899 49.5578 -94.1149 -34.0233
lowerback -6.04875 0.323731 -0.921716
upperback -4.43334 0.342025 -1.11993
thorax -1.17205 0.122133 -0.615773
lowerneck -15.1672 -1.05674 2.00035
upperneck 19.5151 -2.18356 0.275899
head 8.57144 -0.916816 -0.505157
rclavicle 1.19271e-014 -7.83413e-015
rhumerus -34.6408 -1.5099 -83.7544
rradius 39.327
rwrist 10.9861
rhand -25.5255 -5.23673
rfingers 7.12502
rthumb 1.00401 -35.2141
lclavicle 1.19271e-014 -7.83413e-015
lhumerus -40.7732 -2.54023 83.795
lradius 31.6913
lwrist -10.1335
lhand -34.3829 -3.03898
lfingers 7.12502
lthumb -7.54918 26.8063
rfemur -26.3655 -4.83957 19.82
rtibia 61.1561
rfoot -1.67965 -0.140434
rtoes -25.876
lfemur -32.3732 -11.0795 -27.1168
ltibia 22.4955
lfoot -5.0647 17.817
ltoes -3.04905
2505
root 3.21521 16.3914 -1.83702 49.3571 -94.4498 -33.9894
lowerback -5.95363 0.274629 -1.11784
upperback -4.35141 0.28756 -1.16527
thorax -1.14153 0.0996277 -0.555185
lowerneck -15.1254 -0.949787 2.01189
upperneck 19.4965 -2.00663 0.139744
head 8.55719 -0.84723 -0.531744
rclavicle -1.19271e-015 -2.91965e-016
rhumerus -34.8944 -1.38966 -83.8128
rradius 38.9732
rwrist 10.9689
rhand -25.5272 -5.35659
rfingers 7.12502
rthumb 1.0024 -35.334
lclavicle -1.19271e-015 -2.91965e-016
lhumerus -40.3316 -3.14441 84.036
lradius 32.0735
lwrist -9.46577
lhand -34.461 -3.07379
lfingers 7.12502
lthumb -7.62455 26.7688
rfemur -27.9338 -4.77407 19.3411
rtibia 63.6536
rfoot -2.28336 -0.781887
rtoes -24.3567
lfemur -31.7735 -10.9231 -27.576
ltibia 22.7412
lfoot -5.50523 17.9008
ltoes -3.51294
2506
root 3.21823 16.3836 -1.82075 49.65 -94.7313 -34.3227
lowerback -5.95637 0.189291 -1.25971
upperback -4.30532 0.181509 -1.19114
thorax -1.09327 0.0492608 -0.507264
lowerneck -15.1878 -0.824447 2.00927
upperneck 19.5735 -1.80661 0.00599775
head 8.59504 -0.766569 -0.554072
rclavicle 1.19271e-015 7.25564e-015
rhumerus -35.0196 -1.51626 -83.7169
rradius 38.426
rwrist 11.423
rhand -25.4718 -5.16229
rfingers 7.12502
rthumb 1.05593 -35.1394
lclavicle 1.19271e-015 7.25564e-015
lhumerus -39.8665 -3.73725 84.2738
lradius 32.4778
lwrist -8.94747
lhand -34.6172 -2.93127
lfingers 7.12502
lthumb -7.77535 26.9058
rfemur -29.5919 -4.75772 18.8976
rtibia 65.8319
rfoot -2.85917 -1.52402
rtoes -23.3205
lfemur -31.3152 -10.8388 -28.0182
ltibia 22.9989
lfoot -6.0819 18.141
ltoes -3.45226
2507
root 3.22182 16.3791 -1.80835 48.6081 -94.8562 -33.2051
lowerback -6.07869 0.101974 -1.24201
upperback -4.31419 0.0651718 -1.15539
thorax -1.03454 -0.00987131 -0.486089
lowerneck -15.1614 -0.686364 2.04833
upperneck 19.6468 -1.59508 -0.143098
head 8.61552 -0.680182 -0.586509
rclavicle -8.74653e-015 -1.05604e-015
rhumerus -35.228 -1.54632 -83.6381
rradius 37.9271
rwrist 11.932
rhand -25.3642 -5.06466
rfingers 7.12502
rthumb 1.15984 -35.0413
lclavicle -8.74653e-015 -1.05604e-015
lhumerus -39.3832 -4.29153 84.4843
lradius 32.7785
lwrist -8.43301
lhand -34.729 -2.97219
lfingers 7.12502
lthumb -7.8832 26.8608
rfemur -31.3411 -4.64823 18.7366
rtibia 67.6374
rfoot -3.06264 -2.47359
rtoes -22.4839
lfemur -31.0032 -10.7023 -28.2166
ltibia 23.2842
lfoot -6.61401 18.2551
ltoes -3.77249
